# xmcd CD database file
#
# Track frame offsets:
#	150
#	14365
#	25925
#	40200
#	59050
#	76260
#	89330
#	107060
#	121955
#	137357
#	151642
#	166692
#	180272
#
# Disc length: 2594 seconds
#
# Revision: 0
# Processed by: cddbd v1.4PL0 Copyright (c) Steve Scherf et al.
# Submitted via: CDex 1.40Release
#
DISCID=910a200d
DTITLE=Inger Nordström and Rhinestone Band - Living With A Broken Heart
DYEAR=1995
DGENRE=Country
TTITLE0=Living With A Broken Heart
TTITLE1=Give A Little Back
TTITLE2=Shy Guy
TTITLE3=Driving Away
TTITLE4=Old Heart
TTITLE5=Half Past You
TTITLE6=Here With Me
TTITLE7=He Always Came To Me
TTITLE8=The Kind Of Man I Never Find
TTITLE9=You're Gonna Get What's Coming
TTITLE10=Daja Blue
TTITLE11=How Could She
TTITLE12=A Long Way Past Good Bye
EXTD=YEAR: 1995 ID3G: 2
EXTT0=
EXTT1=
EXTT2=
EXTT3=
EXTT4=
EXTT5=
EXTT6=
EXTT7=
EXTT8=
EXTT9=
EXTT10=
EXTT11=
EXTT12=
PLAYORDER=
